<svg width="41" height="34" viewBox="0 0 41 34" fill="none" xmlns="http://www.w3.org/2000/svg">
<rect x="0.5" y="0.5" width="40" height="33" rx="3.5" fill="#307AB4"/>
<g clip-path="url(#clip0_88_50)">
<path fill-rule="evenodd" clip-rule="evenodd" d="M23.7622 12.0259C22.8323 14.2478 22.066 16.0846 22.0593 16.1075C22.0526 16.1306 22.6217 16.2201 23.3241 16.3066C27.6979 16.8453 30.3544 17.1952 30.6802 17.2756C31.1587 17.3936 31.1792 17.5451 30.8186 18.3029C30.5851 18.7938 30.4394 18.9702 30.0492 19.2348C29.5686 19.5606 29.5635 19.5613 26.5146 19.7142C20.8331 19.9991 20.4966 20.0255 20.3852 20.1956C20.3279 20.2829 20.1415 20.6902 19.9706 21.1007L19.66 21.8473L20.0534 22.5478C20.5873 23.4984 20.697 24.2374 20.4486 25.2108C20.3381 25.644 20.1087 26.1668 19.8945 26.4739C19.5695 26.9399 19.4289 27.0558 18.6235 27.5207C17.7578 28.0206 17.6869 28.0443 17.01 28.0625C16.1491 28.0854 15.3266 27.8432 14.6443 27.366C14.2045 27.0584 14.0668 26.894 13.6581 26.188C13.2217 25.4338 13.1793 25.3076 13.1344 24.6293C13.0795 23.8007 13.3234 22.892 13.7892 22.1906C14.0429 21.8087 14.2085 21.6755 14.9957 21.2211C15.7809 20.7677 15.9874 20.6874 16.4744 20.6456C17.1274 20.5897 17.2248 20.4902 17.5029 19.5968C17.6291 19.1913 17.6267 19.0226 17.4916 18.7884C17.2713 18.407 16.9931 18.2832 16.2808 18.2497L15.7034 18.2227L15.3317 18.7529C15.0136 19.2068 14.8482 19.348 14.1844 19.7323C13.4924 20.1329 13.33 20.1878 12.6785 20.2412C11.7543 20.3169 10.9664 20.1069 10.2202 19.5859C9.11912 18.8171 8.5301 17.5846 8.62676 16.2515C8.6797 15.5212 8.86669 15.0307 9.36391 14.3177C9.67291 13.8746 9.83624 13.7363 10.502 13.3542C11.4556 12.8069 12.1642 12.7072 13.2541 12.967C14.2686 13.2086 14.9388 13.7062 15.5117 14.6428L15.9474 15.3552L16.8973 15.482L17.8472 15.6088L20.3832 11.7151C22.8894 7.86737 22.9247 7.81903 23.3777 7.6244C24.104 7.31249 25.4456 7.45124 25.4508 7.83886C25.4519 7.91977 24.692 9.80393 23.7622 12.0259ZM24.065 8.1598C23.8609 8.18601 23.6295 8.24465 23.5509 8.29001C23.4723 8.33537 22.3368 10.0236 21.0274 12.0416C17.0609 18.1552 17.3775 17.631 17.5565 17.7878C17.6435 17.864 17.8491 18.1181 18.0132 18.3525C18.433 18.9522 18.4148 19.437 17.9328 20.4939L17.5468 21.3404L17.1901 21.3366C16.2634 21.3269 16.1606 21.3534 15.3804 21.8039C14.7253 22.1821 14.5585 22.3227 14.3105 22.7053C13.6844 23.6717 13.6675 24.8012 14.2638 25.8407C14.5783 26.389 14.7191 26.5432 15.1798 26.8438C16.1348 27.4671 17.1308 27.5239 18.1584 27.0139C18.984 26.6041 19.4632 26.0301 19.7013 25.1663C19.9732 24.1794 19.8954 23.6612 19.3319 22.7072L18.8607 21.9094L19.3993 20.5985C19.6954 19.8776 20.7274 17.4088 21.6925 15.1124C24.2042 9.13618 24.5433 8.29741 24.4867 8.19944C24.459 8.15141 24.2692 8.13358 24.065 8.1598ZM29.6797 17.8413C29.4626 17.8211 28.3328 17.6793 27.1693 17.5262C22.4407 16.9038 21.8891 16.8387 21.7976 16.8915C21.7452 16.9218 21.488 17.4664 21.2261 18.1018L20.75 19.2571L21.0703 19.2625C21.2464 19.2655 23.1836 19.174 25.375 19.059C29.5025 18.8425 29.8062 18.7915 30.0475 18.2738C30.1997 17.9473 30.1464 17.8846 29.6797 17.8413ZM19.7777 18.1751C19.609 18.4467 19.3663 18.5473 19.0052 18.4953C18.5732 18.4332 18.3464 18.0556 18.4683 17.6012C18.5679 17.229 18.6882 17.1304 19.0897 17.0916C19.601 17.0424 20.046 17.7431 19.7777 18.1751ZM16.4403 16.1439L15.4706 16.0362L15.0261 15.241C14.6315 14.5345 14.5236 14.4066 14.0602 14.0959C13.4847 13.71 12.7637 13.5148 12.0261 13.5453C11.2999 13.5755 10.2751 14.1874 9.86323 14.837C9.50207 15.4065 9.30686 16.1546 9.34055 16.8393C9.36054 17.2452 9.44311 17.4754 9.76761 18.0301C10.2504 18.8555 10.5984 19.1353 11.4744 19.4015C12.7809 19.7988 14.0787 19.3258 14.8517 18.1708C15.0759 17.8358 15.3133 17.532 15.3794 17.4956C15.4455 17.4592 15.7186 17.4567 15.9863 17.4902C16.2541 17.5236 16.5338 17.5151 16.608 17.4715C16.6823 17.4279 16.8931 17.1356 17.0766 16.8219L17.4103 16.2517L16.4403 16.1439ZM14.1667 16.3235C14.2349 16.8542 14.1621 17.1527 13.8605 17.5781C13.4332 18.1809 12.6134 18.5129 11.9203 18.364C10.9604 18.1579 10.2454 16.9232 10.5558 16.0079C10.8608 15.1078 11.8509 14.532 12.769 14.7205C13.4294 14.8561 14.073 15.5942 14.1667 16.3235ZM18.6505 24.0096C18.7338 24.4178 18.622 25.0017 18.3911 25.3654C18.3015 25.5063 18.0111 25.747 17.7455 25.9003C16.7942 26.4496 15.78 26.1806 15.2335 25.234C14.4514 23.8793 15.6589 22.2485 17.2144 22.5588C17.9896 22.7135 18.4892 23.2181 18.6505 24.0096ZM12.9095 15.5691C12.1203 15.1464 11.1668 15.7029 11.2067 16.563C11.2476 17.4457 12.1837 17.9662 12.9312 17.5219C13.6533 17.0928 13.6407 15.9607 12.9095 15.5691ZM17.5355 23.4344C17.3085 23.2587 16.9428 23.1882 16.5712 23.2482C16.1581 23.315 15.8236 23.702 15.7317 24.2195C15.6708 24.5614 15.7003 24.6758 15.9288 24.9854C16.6016 25.897 18.0128 25.4071 17.9606 24.28C17.9442 23.9264 17.7996 23.6389 17.5355 23.4344Z" fill="white"/>
</g>
<rect x="0.5" y="0.5" width="40" height="33" rx="3.5" stroke="#307AB4"/>
<defs>
<clipPath id="clip0_88_50">
<rect width="24" height="24" fill="white" transform="translate(8 5)"/>
</clipPath>
</defs>
</svg>
