<svg width="41" height="34" viewBox="0 0 41 34" fill="none" xmlns="http://www.w3.org/2000/svg">
<rect x="0.5" y="0.5" width="40" height="33" rx="3.5" fill="#307AB4"/>
<path fill-rule="evenodd" clip-rule="evenodd" d="M21.3064 8.07335C21.1748 8.12221 20.9665 8.22507 20.8434 8.30195C20.7204 8.37876 18.5028 10.5626 15.9153 13.1549C11.4562 17.6225 11.2049 17.8868 11.0959 18.2238C10.9315 18.732 10.9835 19.4408 11.2137 19.8279C11.469 20.2575 16.9127 25.6528 17.28 25.8403C17.6999 26.0547 18.4359 26.053 18.9003 25.8364C19.167 25.7121 20.1413 24.7737 23.9403 20.982C29.1869 15.7454 29.0032 15.9595 28.9982 15.0875C28.9937 14.306 28.9889 14.3 25.8456 11.1561C23.8158 9.12595 22.9176 8.27141 22.7042 8.16762C22.3413 7.99105 21.6528 7.94465 21.3064 8.07335ZM22.293 9.20356C22.3912 9.25538 23.6812 10.5122 25.1595 11.9965C28.0191 14.8674 28.0219 14.8708 27.867 15.3395C27.818 15.488 26.9306 16.4194 25.0006 18.3481L22.2052 21.1417L19.0647 18.0004C17.3374 16.2727 15.9167 14.8368 15.9074 14.8094C15.8981 14.7821 17.1638 13.4884 18.7199 11.9345L21.5492 9.10929H21.8318C21.9872 9.10929 22.1947 9.15173 22.293 9.20356ZM18.2565 18.7149C19.9746 20.4349 21.3803 21.8705 21.3803 21.9051C21.3803 21.9919 18.604 24.7449 18.4252 24.8354C18.3457 24.8755 18.168 24.9085 18.0301 24.9085C17.7885 24.9085 17.6822 24.8114 15.0098 22.1486C13.3631 20.5078 12.201 19.2988 12.1438 19.167C11.9579 18.7379 12.0257 18.6396 13.598 17.0585C14.4024 16.2495 15.0768 15.5876 15.0966 15.5876C15.1165 15.5876 16.5384 16.9949 18.2565 18.7149Z" fill="white"/>
<rect x="0.5" y="0.5" width="40" height="33" rx="3.5" stroke="#307AB4"/>
</svg>
