<svg width="10" height="11" viewBox="0 0 10 11" fill="none" xmlns="http://www.w3.org/2000/svg">
<path fill-rule="evenodd" clip-rule="evenodd" d="M6.3715 6.12235C7.07306 5.83767 7.47993 5.32606 7.49983 4.57197C7.49992 4.31021 7.43631 4.05992 7.31396 3.81993C7.63175 3.78121 7.94889 3.84333 8.27724 4.00653L8.50116 4.11782L8.72453 4.00543C9.60741 3.56118 9.99504 2.39787 9.99942 0.559976L10.0008 0L9.44421 0.0618416C3.19707 0.755996 -0.000149156 4.13106 5.21891e-09 10.0588L1 10.0588C0.999983 9.38544 1.04345 8.75007 1.13093 8.15248C1.32584 7.13075 2.08516 6.74787 3.84862 6.5497C3.99844 6.53287 4.07086 6.52542 4.40622 6.49173C5.44475 6.3874 5.90204 6.31285 6.3715 6.12235ZM4.30626 5.49674C3.96628 5.5309 3.89232 5.5385 3.73695 5.55596C2.90521 5.64942 2.22679 5.79123 1.68963 6.02182C2.78764 3.28746 5.20332 1.66974 8.98316 1.12825C8.92769 2.09078 8.73353 2.70523 8.44429 2.98892C7.72184 2.7131 6.98728 2.75391 6.27528 3.11213L5.6572 3.42309L6.14645 3.91234C6.39317 4.15906 6.5 4.37272 6.5 4.55878C6.48461 5.13555 6.01839 5.32474 4.30626 5.49674Z" fill="#484B4F"/>
</svg>
