<?xml version="1.0" encoding="UTF-8" standalone="no"?>
<svg
   xmlns:dc="http://purl.org/dc/elements/1.1/"
   xmlns:cc="http://creativecommons.org/ns#"
   xmlns:rdf="http://www.w3.org/1999/02/22-rdf-syntax-ns#"
   xmlns:svg="http://www.w3.org/2000/svg"
   xmlns="http://www.w3.org/2000/svg"
   xmlns:sodipodi="http://sodipodi.sourceforge.net/DTD/sodipodi-0.dtd"
   xmlns:inkscape="http://www.inkscape.org/namespaces/inkscape"
   width="1227.0824"
   height="1493.5126"
   id="svg2"
   version="1.1"
   inkscape:version="0.91 r13725"
   sodipodi:docname="bookstack_crop.svg">
  <metadata
     id="metadata15">
    <rdf:RDF>
      <cc:Work
         rdf:about="">
        <dc:format>image/svg+xml</dc:format>
        <dc:type
           rdf:resource="http://purl.org/dc/dcmitype/StillImage" />
        <dc:title>stack of books</dc:title>
      </cc:Work>
    </rdf:RDF>
  </metadata>
  <defs
     id="defs13" />
  <sodipodi:namedview
     pagecolor="#ffffff"
     bordercolor="#666666"
     borderopacity="1"
     objecttolerance="10"
     gridtolerance="10"
     guidetolerance="10"
     inkscape:pageopacity="0"
     inkscape:pageshadow="2"
     inkscape:window-width="1920"
     inkscape:window-height="1146"
     id="namedview11"
     showgrid="false"
     fit-margin-top="0"
     fit-margin-left="0"
     fit-margin-right="0"
     fit-margin-bottom="0"
     inkscape:zoom="0.478"
     inkscape:cx="982.97737"
     inkscape:cy="503.37812"
     inkscape:window-x="0"
     inkscape:window-y="28"
     inkscape:window-maximized="1"
     inkscape:current-layer="svg2" />
  <title
     id="title4">stack of books</title>
  <g
     id="g6"
     transform="translate(-17.022625,-9.8655893)">
    <title
       id="title8">Layer 1</title>
    <path
       id="svg_1"
       d="m 1145.5031,515.7522 -72.4334,-43.83576 -2.8281,-49.00833 c -2.7165,-47.38949 -4.0188,-49.52917 -39.1655,-64.30237 -39.31462,-16.50351 -42.19866,-23.48077 -25.9183,-63.18603 18.8106,-45.90102 19.834,-52.28287 23.704,-143.2291 C 1033.4576,43.978051 1037.7556,47.773671 902.04321,39.680066 848.66266,36.498425 722.04865,27.586142 620.64587,19.864648 519.2431,12.143151 429.41324,8.012613 421.02194,10.673286 407.84888,14.878241 258.03326,311.47675 203.98276,440.3978 c -13.13582,31.3139 -37.95624,58.73916 -100.43524,110.92905 -45.659177,38.12371 -84.489928,73.94036 -86.294713,79.59655 -4.428211,13.80561 54.217918,37.6958 246.957673,100.63996 88.97394,29.06256 182.56216,60.41369 207.99658,69.69812 25.43442,9.28442 55.1669,19.38745 66.06992,22.45745 15.14538,4.24213 20.69,14.27082 23.35064,42.21699 1.91639,20.16894 0.0558,36.67248 -4.112,36.67248 -17.89892,0 -511.088569,-170.09613 -516.31686,-178.05957 -3.442139,-5.22827 -8.540154,-4.31659 -12.596273,2.23273 -10.400763,16.81982 2.083864,24.41113 92.304453,56.09717 45.75218,16.057 104.00758,38.57031 129.42343,50.03161 25.41578,11.42401 67.01887,27.51831 92.43464,35.72351 167.69602,54.08777 165.38886,52.0968 169.66828,146.28055 2.82812,62.2556 1.22803,73.289 -9.58209,66.6653 -7.14469,-4.3724 -71.03775,-51.8921 -142.00113,-105.57054 C 289.88669,922.33069 211.8345,864.7638 187.38623,848.09284 l -44.4684,-30.3465 2.84671,48.85943 2.88396,48.82221 78.23828,31.35113 c 65.75366,26.34613 114.05487,55.05519 161.48157,95.96979 9.17279,7.9076 -12.01947,2.1211 -101.06784,-27.5369 -91.2067,-30.4208 -112.97574,-41.93789 -107.91488,-57.139 3.98166,-11.88928 2.43737,-12.0567 -10.7543,-1.17224 -23.77849,19.6665 -18.56877,38.83081 21.73186,79.87564 l 37.08179,37.7887 -25.82515,24.7275 c -18.55021,17.7874 -38.21679,31.0162 -48.67337,34.4956 l -3.40487,16.8012 56.13434,28.523 c 30.88599,15.6848 60.56256,28.523 65.9397,28.523 16.81985,0 134.14938,49.8083 170.31946,72.303 18.97818,11.7962 38.5889,18.9409 43.5939,15.8337 5.00501,-3.1072 24.93204,2.4561 44.28235,12.3173 19.36883,9.8796 54.68304,20.8759 78.4801,24.4669 23.79718,3.535 49.25019,11.2379 56.56232,17.0245 13.11731,10.4564 27.40668,107.6171 15.8338,107.6171 -3.33057,0 -86.92737,-29.4534 -185.85559,-65.456 -98.90952,-36.0026 -205.8197,-74.2938 -237.59879,-85.0666 -36.70967,-12.4661 -57.77169,-24.7089 -57.77169,-33.5839 0,-11.7032 -2.549,-11.4055 -15.8523,1.8792 -13.9173,13.9173 -14.19641,17.4897 -2.32574,29.3789 12.78233,12.7823 492.85473,199.1588 512.6701,199.0286 5.09808,-0.037 46.70111,-40.524 92.49054,-89.9415 45.7522,-49.4362 131.17249,-139.8986 189.87439,-201.0194 58.68332,-61.1023 124.53002,-131.898 146.35482,-157.2954 21.8437,-25.4342 52.8598,-52.5618 68.954,-60.28336 28.5603,-13.71259 29.2671,-15.5918 29.2671,-76.08002 0,-53.88299 -2.735,-63.96747 -20.8385,-76.58233 -27.9836,-19.64795 -26.3649,-25.95545 11.5728,-44.02179 l 32.3374,-15.42444 0,-100.7143 c 0.093,-114.52008 7.4237,-102.14709 -98.4631,-166.26336 z m -720.3878,701.7257 c -24.93207,-22.569 -83.96897,-77.6986 -131.19104,-122.5019 -47.22206,-44.7846 -83.91314,-81.4758 -81.55019,-81.4758 2.36295,0 35.59332,14.457 73.82866,32.1514 42.40314,19.5919 89.79269,51.1292 121.44147,80.8803 44.26373,41.5658 52.72952,54.9063 57.36233,90.3507 l 5.45166,41.5844 -45.34289,-40.9891 z M 825.20038,684.52728 c -11.1264,-1.4884 -68.02356,-6.95862 -126.52087,-12.16833 l 0,-0.0186 C 640.20075,667.13074 511.14954,655.74383 411.88638,647.05481 l -180.49693,-15.77789 0.26048,-63.74414 0.22327,-63.7443 36.98877,5.19113 c 37.71436,5.28406 365.32907,36.2259 499.14353,47.14759 l 73.97753,6.02832 1.71174,62.51623 c 1.63732,59.37177 0.68847,62.36743 -18.49439,59.85553 z"
       inkscape:connector-curvature="0"
       style="fill:#1d1d1b" />
  </g>
</svg>
