<?xml version="1.0"?><svg width="2000" height="2000" xmlns="http://www.w3.org/2000/svg">
 <title>stack of books</title>
 <g>
  <title>Layer 1</title>
  <path id="svg_1" d="m1145.503052,515.752197l-72.43335,-43.835754l-2.828125,-49.008331c-2.716431,-47.389496 -4.018799,-49.529175 -39.165527,-64.302368c-39.314575,-16.50351 -42.198608,-23.480774 -25.918274,-63.186035c18.810608,-45.901016 19.834045,-52.282867 23.704041,-143.229095c4.595825,-108.212563 8.893799,-104.416943 -126.818604,-112.510548c-53.380554,-3.181641 -179.994568,-12.093924 -281.397339,-19.815418c-101.402771,-7.721497 -191.232635,-11.852035 -199.623932,-9.191362c-13.173065,4.204955 -162.988678,300.803461 -217.039185,429.724512c-13.135818,31.313904 -37.956238,58.739166 -100.435234,110.929047c-45.65918,38.123718 -84.489931,73.940369 -86.294716,79.596558c-4.428211,13.805603 54.217918,37.695801 246.957672,100.639954c88.973938,29.062561 182.562164,60.413696 207.996582,69.69812s55.166901,19.387451 66.069916,22.457458c15.145386,4.242126 20.690002,14.270813 23.350647,42.21698c1.916382,20.168945 0.055786,36.672485 -4.112,36.672485c-17.898926,0 -511.088573,-170.09613 -516.316864,-178.05957c-3.442139,-5.228271 -8.540154,-4.316589 -12.596273,2.232727c-10.400763,16.819824 2.083864,24.411133 92.304449,56.097168c45.752182,16.057007 104.007584,38.570313 129.423431,50.031616c25.415787,11.424011 67.018875,27.518311 92.434647,35.723511c167.696014,54.087769 165.388855,52.096802 169.668274,146.280518c2.828125,62.255676 1.228027,73.289001 -9.582092,66.665344c-7.144684,-4.372437 -71.03775,-51.89209 -142.001129,-105.570557s-149.015564,-111.245361 -173.463837,-127.916321l-44.468399,-30.346497l2.84671,48.859436l2.883957,48.822205l78.238281,31.351135c65.753662,26.34613 114.054871,55.055176 161.481567,95.969788c9.172791,7.907593 -12.01947,2.121094 -101.067841,-27.536926c-91.206696,-30.420776 -112.975739,-41.937866 -107.914871,-57.138977c3.981659,-11.889282 2.437363,-12.056702 -10.754303,-1.172241c-23.778488,19.666504 -18.568771,38.830811 21.731857,79.87561l37.081787,37.788696l-25.82515,24.727539c-18.550201,17.787354 -38.216782,31.016235 -48.67337,34.495605l-3.404861,16.801147l56.134338,28.523071c30.885986,15.684814 60.562561,28.522949 65.939697,28.522949c16.819855,0 134.149384,49.80835 170.319458,72.302979c18.97818,11.796265 38.588898,18.940918 43.593903,15.83374s24.932037,2.456055 44.282349,12.317261c19.368835,9.879639 54.683044,20.875977 78.480103,24.466919c23.79718,3.535034 49.250183,11.237915 56.562317,17.024536c13.11731,10.456421 27.406677,107.617065 15.833801,107.617065c-3.330566,0 -86.927368,-29.453369 -185.855591,-65.455933c-98.909515,-36.002686 -205.819702,-74.293823 -237.598785,-85.06665c-36.709671,-12.466064 -57.771698,-24.708862 -57.771698,-33.583862c0,-11.703247 -2.548996,-11.405518 -15.852295,1.87915c-13.917297,13.917358 -14.196411,17.489746 -2.325745,29.378906c12.782333,12.782349 492.854736,199.158813 512.670105,199.028564c5.098083,-0.037231 46.701111,-40.523926 92.49054,-89.941406c45.752197,-49.436279 131.172485,-139.898682 189.87439,-201.019409c58.68335,-61.102295 124.530029,-131.898071 146.354858,-157.29541c21.843628,-25.434204 52.859741,-52.561829 68.953979,-60.283386c28.560303,-13.712585 29.26709,-15.591797 29.26709,-76.080017c0,-53.882996 -2.734985,-63.967468 -20.838501,-76.582336c-27.983643,-19.647949 -26.364868,-25.955444 11.572754,-44.02179l32.337402,-15.424438l0,-100.714294c0.093018,-114.520081 7.423706,-102.147095 -98.463013,-166.263367zm-720.387756,701.725708c-24.932068,-22.56897 -83.968964,-77.698608 -131.19104,-122.501953c-47.222061,-44.784546 -83.913132,-81.475708 -81.550186,-81.475708s35.593323,14.456909 73.828659,32.151367c42.403137,19.591919 89.792694,51.12915 121.441467,80.880249c44.263733,41.565796 52.729523,54.906372 57.362335,90.350708l5.45166,41.584473l-45.342896,-40.989136zm400.085083,-532.950623c-11.126404,-1.488403 -68.02356,-6.958618 -126.520874,-12.168335l0,-0.018555c-58.47876,-5.209656 -187.529968,-16.596558 -286.793121,-25.285583l-180.496933,-15.777893l0.260483,-63.744141l0.223267,-63.744293l36.98877,5.191132c37.714355,5.284058 365.329071,36.225891 499.143524,47.147583l73.977539,6.02832l1.711731,62.516235c1.637329,59.371765 0.688477,62.367432 -18.494385,59.85553z" fill="#1D1D1B"/>
 </g>
</svg>