<?xml version="1.0" encoding="utf-8"?>
<svg version="1.1" x="0px" y="0px" viewBox="1.408 2.615 77.033 93.209" style="enable-background:new 0 0 100 100;" xmlns="http://www.w3.org/2000/svg">
 <path d="M 1360.94 701.874 L 1360.94 701.303 C 1360.94 700.504 1359.651 700.161 1358.44 700.161 C 1357.228 700.161 1355.94 700.532 1355.94 701.303 L 1355.94 701.874 C 1355.94 702.388 1356.12 702.902 1356.455 703.273 L 1357.744 704.672 C 1357.821 704.758 1357.847 704.843 1357.847 704.957 L 1357.847 706.785 C 1357.847 706.899 1357.898 706.984 1358.002 707.013 L 1358.749 707.27 C 1358.878 707.299 1359.007 707.213 1359.007 707.042 L 1359.007 704.986 C 1359.007 704.872 1359.058 704.786 1359.11 704.7 L 1360.424 703.273 C 1360.759 702.902 1360.94 702.388 1360.94 701.874 Z M 1358.44 701.845 C 1357.203 701.845 1356.533 701.474 1356.507 701.332 L 1356.507 701.332 C 1356.533 701.189 1357.203 700.818 1358.44 700.818 C 1359.677 700.818 1360.321 701.189 1360.373 701.332 C 1360.321 701.474 1359.677 701.845 1358.44 701.845 Z"/>
 <path d="M 1359.728 704.786 C 1359.574 704.786 1359.471 704.9 1359.471 705.072 C 1359.471 705.243 1359.574 705.357 1359.728 705.357 L 1360.837 705.357 C 1360.991 705.357 1361.094 705.243 1361.094 705.072 C 1361.094 704.9 1360.991 704.786 1360.837 704.786 L 1359.728 704.786 Z"/>
 <path d="M 1360.837 705.757 L 1359.728 705.757 C 1359.574 705.757 1359.471 705.871 1359.471 706.042 C 1359.471 706.214 1359.574 706.328 1359.728 706.328 L 1360.837 706.328 C 1360.991 706.328 1361.094 706.214 1361.094 706.042 C 1361.094 705.871 1360.991 705.757 1360.837 705.757 Z"/>
 <path d="M 1360.837 706.699 L 1359.728 706.699 C 1359.574 706.699 1359.471 706.813 1359.471 706.984 C 1359.471 707.156 1359.574 707.27 1359.728 707.27 L 1360.837 707.27 C 1360.991 707.27 1361.094 707.156 1361.094 706.984 C 1361.094 706.842 1360.991 706.699 1360.837 706.699 Z"/>
 <g style="" transform="matrix(4.006512, 0, 0, 4.737886, -7.81693, -87.092751)">
  <g transform="matrix(1, 0, 0, 1, -3.055856, -2.487758)">
   <path d="M 18.24 36.158 L 14.89 36.158 L 14.89 34.473 C 14.89 34.245 14.787 34.045 14.606 33.959 C 14.426 33.845 14.22 33.874 14.065 33.988 L 10.766 36.557 C 10.637 36.672 10.534 36.843 10.534 37.043 C 10.534 37.243 10.611 37.414 10.766 37.528 L 14.065 40.098 C 14.168 40.183 14.271 40.212 14.374 40.212 C 14.452 40.212 14.529 40.183 14.606 40.155 C 14.787 40.041 14.89 39.841 14.89 39.641 L 14.89 37.956 L 18.24 37.956 C 18.678 37.956 19.039 37.557 19.039 37.071 C 19.039 36.586 18.678 36.158 18.24 36.158 Z" transform="matrix(-0.006465, 0.845615, -1.182522, -0.006465, 58.693709, 24.785151)"/>
   <path d="M 15.628 22.2 C 15.473 22.086 15.242 22.057 15.087 22.171 C 14.906 22.286 14.803 22.485 14.803 22.685 L 14.803 24.37 L 11.453 24.37 C 11.015 24.37 10.654 24.769 10.654 25.255 C 10.654 25.74 11.015 26.14 11.453 26.14 L 14.803 26.14 L 14.803 27.824 C 14.803 28.053 14.906 28.253 15.087 28.338 C 15.164 28.395 15.242 28.395 15.319 28.395 C 15.422 28.395 15.525 28.367 15.628 28.281 L 18.927 25.712 C 19.056 25.597 19.159 25.426 19.159 25.226 C 19.159 25.026 19.082 24.855 18.927 24.741 L 15.628 22.2 Z" transform="matrix(-0.006465, 0.845615, -1.182522, -0.006465, 44.857774, 12.804873)"/>
   <path d="M 14.819 24.64 C 14.381 24.64 14.02 25.04 14.02 25.525 L 14.02 39.029 C 14.02 39.514 14.381 39.914 14.819 39.914 C 15.257 39.914 15.618 39.514 15.618 39.029 L 15.618 25.525 C 15.618 25.04 15.257 24.64 14.819 24.64 Z" transform="matrix(-0.006465, 0.845615, -1.182522, -0.006465, 53.083053, 19.954499)"/>
   <path d="M 14.839 22.571 C 14.401 22.571 14.04 22.971 14.04 23.456 L 14.04 36.96 C 14.04 37.445 14.401 37.845 14.839 37.845 C 15.277 37.845 15.638 37.445 15.638 36.96 L 15.638 23.456 C 15.638 22.971 15.277 22.571 14.839 22.571 Z" transform="matrix(-0.006465, 0.845615, -1.182522, -0.006465, 50.656545, 17.855211)"/>
  </g>
 </g>
</svg>