<?xml version="1.0" encoding="UTF-8" standalone="no"?>
<!-- Created with Inkscape (http://www.inkscape.org/) -->

<svg
   xmlns:dc="http://purl.org/dc/elements/1.1/"
   xmlns:cc="http://creativecommons.org/ns#"
   xmlns:rdf="http://www.w3.org/1999/02/22-rdf-syntax-ns#"
   xmlns:svg="http://www.w3.org/2000/svg"
   xmlns="http://www.w3.org/2000/svg"
   xmlns:sodipodi="http://sodipodi.sourceforge.net/DTD/sodipodi-0.dtd"
   xmlns:inkscape="http://www.inkscape.org/namespaces/inkscape"
   id="svg2995"
   version="1.1"
   inkscape:version="0.48.4 r9939"
   width="153"
   height="311"
   sodipodi:docname="ilm-logo.svg">
  <title
     id="title3073">Ilm Logo</title>
  <metadata
     id="metadata3001">
    <rdf:RDF>
      <cc:Work
         rdf:about="">
        <dc:format>image/svg+xml</dc:format>
        <dc:type
           rdf:resource="http://purl.org/dc/dcmitype/StillImage" />
        <dc:title>Ilm Logo</dc:title>
      </cc:Work>
    </rdf:RDF>
  </metadata>
  <defs
     id="defs2999" />
  <sodipodi:namedview
     pagecolor="#ffffff"
     bordercolor="#666666"
     borderopacity="1"
     objecttolerance="10"
     gridtolerance="10"
     guidetolerance="10"
     inkscape:pageopacity="0"
     inkscape:pageshadow="2"
     inkscape:window-width="1562"
     inkscape:window-height="1419"
     id="namedview2997"
     showgrid="false"
     inkscape:zoom="2.4019293"
     inkscape:cx="76.5"
     inkscape:cy="151.00466"
     inkscape:window-x="656"
     inkscape:window-y="11"
     inkscape:window-maximized="0"
     inkscape:current-layer="svg2995" />
  <g
     id="g3065"
     transform="translate(0.4163357,-1.665328)">
    <path
       style="fill:#aba64e"
       d="M 49.662749,302.75 C 40.01739,289.89761 34.802004,268.6502 29.515447,220.67017 26.262416,191.14614 26.266829,190.97345 30.5,182.1403 c 1.925,-4.0168 3.5,-8.75559 3.5,-10.53066 0,-5.26281 1.602844,-6.34802 10.111484,-6.84601 13.514585,-0.79097 26.038759,-8.4092 30.90508,-18.799 l 2.42026,-5.16735 -10.468412,-10.19714 C 61.210785,124.99171 49.975,114.9831 42,108.35879 34.025,101.73449 24.064264,92.702927 19.865032,88.288662 12.85191,80.916415 5,70.602881 5,68.763348 c 0,-3.680866 13.947026,6.371294 35.011753,25.234322 19.220135,17.21123 25.398077,22.00371 33.700205,26.14258 10.318084,5.14388 18.545247,5.11529 26.394292,-0.0917 C 104.45635,117.16268 112,108.34182 112,106.14105 c 0,-0.71989 -2.12232,-1.14916 -5.75,-1.16301 -3.39049,-0.0129 -7.400505,-0.77174 -9.772192,-1.84912 C 75.0962,93.415941 72.893583,53.70674 93.1758,43.599686 98.691402,40.851145 108.00859,40.032815 111,42.034184 c 1.25381,0.83885 1.00763,1.35723 -1.5,3.15846 -10.486082,7.532159 -19.046668,19.95411 -21.59316,31.333036 -1.087936,4.86141 -1.030611,5.680073 0.517523,7.390742 2.334023,2.579067 10.702466,4.475107 16.340657,3.702307 11.7331,-1.6082 21.37241,-12.307669 29.36658,-32.596395 2.05392,-5.212716 4.13489,-9.611165 4.62439,-9.774331 1.32674,-0.442245 3.55105,2.608419 6.24066,8.559101 2.15518,4.768276 2.26439,5.631277 1.07573,8.5 -1.40166,3.38276 -5.84772,16.673236 -11.09124,33.154686 -1.74312,5.47898 -4.67688,12.95543 -6.51948,16.61433 -3.87547,7.69568 -13.8452,20.63667 -18.39356,23.87539 -2.97286,2.11686 -3.57676,2.17659 -12.346922,1.22115 -5.071648,-0.55252 -11.228607,-1.69747 -13.682131,-2.54433 -2.453525,-0.84687 -4.628514,-1.3722 -4.833311,-1.1674 -0.204796,0.2048 1.465133,3.41896 3.710954,7.14258 5.552373,9.20596 5.536394,12.99257 -0.09039,21.41875 -2.295534,3.43759 -5.670534,7.13331 -7.5,8.21273 -1.829466,1.07941 -3.323337,2.25561 -3.319713,2.61379 0.0036,0.35817 0.926564,2.00122 2.050977,3.65122 C 77.734896,181.89623 81,188.88495 81,191.35977 c 0,3.03404 -1.57798,3.64588 -9.331787,3.61827 -6.997579,-0.0249 -13.012963,-2.31753 -18.330131,-6.98606 C 51.463861,186.34639 49.532768,185 49.046763,185 c -1.642803,0 -5.115865,6.82602 -6.268136,12.3195 -0.940243,4.48264 -0.837519,7.22597 0.573675,15.32045 3.758091,21.55607 4.558629,28.73119 5.630981,50.46976 0.705218,14.2961 1.827766,26.06253 3.052883,32 1.065658,5.16466 1.943471,9.72779 1.950697,10.14029 0.03034,1.73234 -2.05088,0.52907 -4.324114,-2.5 z M 14.968766,149.57 C 8.5494024,147.79749 4.5698696,145.72759 4.2453537,143.99239 3.8380736,141.81463 11.629056,130.31213 17.54334,124.35941 c 11.33203,-11.40566 23.11428,-12.98477 32.290032,-4.32764 1.283355,1.21082 1.958355,2.51989 1.5,2.90905 -0.458355,0.38916 -4.597363,1.22726 -9.197796,1.86245 -7.42999,1.02587 -20.166828,5.49881 -18.994959,6.67068 0.244843,0.24484 3.93051,-0.66163 8.190372,-2.01439 C 36.481356,127.82401 41.408602,127 46.038095,127 52.370012,127 53,127.18389 53,129.03212 c 0,6.46041 -7.311209,15.69501 -15.5,19.57764 -5.697349,2.70134 -14.817912,3.09004 -22.531234,0.96024 z M 35.614774,81.126824 C 33.190391,78.447911 32.027284,69.621058 33.160333,62.5 34.443135,54.437771 37.708527,49.155151 47.841129,38.75 52.527571,33.9375 55.898016,30 55.331005,30 53.395132,30 46.507705,35.667153 40.108844,42.525188 32.04717,51.165358 28.706802,58.163083 28.187103,67.5 27.716497,75.954918 26.861818,77.158264 23.542265,74.039706 20.276956,70.972108 18.759697,66.111733 18.68799,58.489558 18.61108,50.314555 21.99009,43.375218 29.707747,35.85872 36.989197,28.767059 72.694209,3.6686793 74.510081,4.3654947 c 2.065377,0.7925598 2.792043,8.4189513 2.235817,23.4650163 -0.537286,14.533744 -2.367392,22.51798 -7.47597,32.615544 -7.368652,14.564804 -27.818011,27.130739 -33.655154,20.680769 z"
       id="path3071"
       inkscape:connector-curvature="0" />
    <path
       style="fill:#79a402"
       d="m 48.126493,297.70467 c -2.952891,-4.77788 -6.920772,-15.67297 -9.159935,-25.15154 -2.758269,-11.67599 -4.536535,-23.6813 -7.955272,-53.70708 -3.261604,-28.64573 -3.290466,-27.97795 1.605529,-37.14711 1.409973,-2.64058 2.865391,-6.91558 3.234261,-9.5 L 36.52175,167.5 43.239102,166.83474 C 57.917974,165.381 68.569958,159.4505 75.175331,149.05422 79.789791,141.79146 79.372227,140.72771 67.25,128.86426 61.3375,123.07797 51.1,113.89908 44.5,108.46671 26.435672,93.598225 13.328101,80.371939 8.6083545,72.25 5.8641432,67.527645 21.550271,79.353323 39,95.16208 c 23.045991,20.87875 31.341933,26.67127 42.322917,29.55136 7.884164,2.06785 13.224638,1.06997 20.290253,-3.7913 4.75199,-3.26946 12.00006,-12.17722 12.54868,-15.42214 0.3014,-1.78266 -0.15087,-1.97271 -4.16185,-1.74892 C 92.44596,104.73053 81.04026,91.761117 81.010824,70.787513 80.997247,61.113427 83.565878,53.799329 88.743566,48.768768 93.414105,44.230945 96.602714,43 103.68683,43 l 5.55664,0 -7.00073,6.481601 c -7.891045,7.305898 -14.408876,18.353176 -15.990439,27.1027 -1.250591,6.918522 -0.302082,8.848811 5.424544,11.039364 14.934995,5.712946 29.159105,-2.05668 39.060865,-21.336196 C 132.93747,62.004361 135.54577,56.25 136.53392,53.5 c 0.98816,-2.75 2.15886,-5.414087 2.60156,-5.920193 0.44281,-0.506231 2.10356,1.968026 3.69168,5.5 l 2.88677,6.420193 -2.36586,5.394539 c -1.30122,2.966996 -4.40142,12.124289 -6.88933,20.349538 -7.7334,25.567253 -12.129,34.067443 -23.35228,45.158583 l -5.97299,5.90265 -8.683125,-0.66743 c -5.584689,-0.42928 -10.899807,-1.55425 -14.895197,-3.15266 -6.4508,-2.58073 -8.570168,-3.01167 -8.53375,-1.73522 0.01177,0.4125 2.044268,3.87282 4.516665,7.6896 6.565642,10.13576 7.275265,13.21281 4.382779,19.00445 C 81.638046,162.0149 73.102307,171 71.042841,171 c -1.933099,0 -1.021583,2.46675 3.478557,9.4137 C 77.018959,184.26923 79,188.52412 79,190.03286 c 0,2.33212 -0.49748,2.78619 -3.605096,3.29048 -3.939797,0.63934 -12.245595,-0.63788 -15.51029,-2.38509 -1.133859,-0.60683 -3.859446,-2.7276 -6.056859,-4.71283 -4.861185,-4.39179 -6.151661,-3.91026 -10.077755,3.76037 -2.30174,4.49705 -2.75,6.63698 -2.75,13.12815 0,4.26542 0.65864,10.88637 1.463644,14.71323 2.774689,13.19041 3.498032,19.74213 4.545692,41.17283 0.578077,11.825 1.711908,25.96305 2.519625,31.4179 0.807716,5.45484 1.29546,10.09101 1.083875,10.3026 -0.211586,0.21158 -1.33044,-1.14554 -2.486343,-3.01583 z M 23,149.3108 c -5.68595,-0.7671 -15.0000477,-3.60593 -16.0731233,-4.89891 -0.9004714,-1.085 -0.4246614,-2.53343 2.1843753,-6.64952 7.947727,-12.53858 19.641528,-21.72874 27.678586,-21.7526 3.181236,-0.009 10.507264,3.0439 11.618874,4.84252 0.299425,0.48448 -2.932543,1.42693 -7.182152,2.09432 C 29.321394,124.8163 17,131.03559 17,135.17508 c 0,1.2517 0.48261,1.83095 1.25,1.5003 12.805655,-5.5177 16.597492,-6.8028 22.572985,-7.65027 C 48.623438,127.9188 51,128.35925 51,130.91121 c 0,2.64214 -5.427564,10.55598 -9.144829,13.33392 C 37.079198,147.81424 28.664376,150.07499 23,149.3108 z M 37.09746,80.09746 C 34.502783,77.502783 33.488637,68.780196 34.958461,61.700093 36.603212,53.777367 42.1538,45.85224 53.317575,35.486954 62.314881,27.13318 64.673556,24.340223 63.620444,23.287111 62.750839,22.417506 54.99643,27.106957 47.648501,32.946087 34.350374,43.513621 27.241608,54.740897 26.244903,66.75 25.959605,70.1875 25.349345,73 24.88877,73 22.728594,73 20.661981,66.204009 20.631468,59 20.573274,45.260185 26.131511,38.721286 54.900589,18.684641 68.629445,9.1229784 73.512947,6.203239 74.135276,7.184641 75.097182,8.7015502 75.508076,18.938987 75.071072,30.5 74.266365,51.788641 64.601527,70.21381 50.31259,77.699887 42.148228,81.977255 39.464207,82.464207 37.09746,80.09746 z"
       id="path3069"
       inkscape:connector-curvature="0" />
    <path
       style="fill:#a56209"
       d="m 48.126493,297.70467 c -2.952891,-4.77788 -6.920772,-15.67297 -9.159935,-25.15154 -2.758269,-11.67599 -4.536535,-23.6813 -7.955272,-53.70708 -3.261604,-28.64573 -3.290466,-27.97795 1.605529,-37.14711 1.409973,-2.64058 2.865391,-6.91558 3.234261,-9.5 L 36.52175,167.5 43.239102,166.83474 C 57.917974,165.381 68.569958,159.4505 75.175331,149.05422 79.789791,141.79146 79.372227,140.72771 67.25,128.86426 61.3375,123.07797 51.1,113.89908 44.5,108.46671 26.435672,93.598225 13.328101,80.371939 8.6083545,72.25 5.8641432,67.527645 21.550271,79.353323 39,95.16208 c 23.045991,20.87875 31.341933,26.67127 42.322917,29.55136 7.884164,2.06785 13.224638,1.06997 20.290253,-3.7913 4.75199,-3.26946 12.00006,-12.17722 12.54868,-15.42214 0.3014,-1.78266 -0.15087,-1.97271 -4.16185,-1.74892 C 92.44596,104.73053 81.04026,91.761117 81.010824,70.787513 80.997247,61.113427 83.565878,53.799329 88.743566,48.768768 93.414105,44.230945 96.602714,43 103.68683,43 l 5.55664,0 -7.00073,6.481601 c -7.891045,7.305898 -14.408876,18.353176 -15.990439,27.1027 -1.250591,6.918522 -0.302082,8.848811 5.424544,11.039364 14.934995,5.712946 29.159105,-2.05668 39.060865,-21.336196 C 132.93747,62.004361 135.54577,56.25 136.53392,53.5 c 0.98816,-2.75 2.15886,-5.414087 2.60156,-5.920193 0.44281,-0.506231 2.10356,1.968026 3.69168,5.5 l 2.88677,6.420193 -2.36586,5.394539 c -1.30122,2.966996 -4.40142,12.124289 -6.88933,20.349538 -7.7334,25.567253 -12.129,34.067443 -23.35228,45.158583 l -5.97299,5.90265 -8.683125,-0.66743 c -5.584689,-0.42928 -10.899807,-1.55425 -14.895197,-3.15266 -6.4508,-2.58073 -8.570168,-3.01167 -8.53375,-1.73522 0.01177,0.4125 2.044268,3.87282 4.516665,7.6896 6.565642,10.13576 7.275265,13.21281 4.382779,19.00445 C 81.638046,162.0149 73.102307,171 71.042841,171 c -1.933099,0 -1.021583,2.46675 3.478557,9.4137 C 77.018959,184.26923 79,188.52412 79,190.03286 c 0,2.33212 -0.49748,2.78619 -3.605096,3.29048 -3.939797,0.63934 -12.245595,-0.63788 -15.51029,-2.38509 -1.133859,-0.60683 -3.859446,-2.7276 -6.056859,-4.71283 -4.861185,-4.39179 -6.151661,-3.91026 -10.077755,3.76037 -2.30174,4.49705 -2.75,6.63698 -2.75,13.12815 0,4.26542 0.65864,10.88637 1.463644,14.71323 2.774689,13.19041 3.498032,19.74213 4.545692,41.17283 0.578077,11.825 1.711908,25.96305 2.519625,31.4179 0.807716,5.45484 1.29546,10.09101 1.083875,10.3026 -0.211586,0.21158 -1.33044,-1.14554 -2.486343,-3.01583 z"
       id="path3067"
       inkscape:connector-curvature="0" />
  </g>
</svg>
